<svg xmlns="http://www.w3.org/2000/svg" width="24" height="24" viewBox="0 0 24 24"><path d="M12.572,6.545,11.485,5.458,6.049,10.893A2.306,2.306,0,0,0,9.31,14.154l6.523-6.522A3.843,3.843,0,0,0,10.4,2.2L3.549,9.045l-.015.014a5.36,5.36,0,0,0,7.581,7.58l.014-.015h0L15.8,11.951l-1.088-1.087-4.675,4.674-.014.014a3.823,3.823,0,1,1-5.407-5.405l.015-.014h0l6.85-6.848a2.306,2.306,0,0,1,3.262,3.261L8.223,13.067A.769.769,0,1,1,7.136,11.98l5.436-5.436Z" transform="translate(2.735 2.359)"/><path d="M0,0H24V24H0Z" fill="none"/></svg>