<svg xmlns="http://www.w3.org/2000/svg" width="24" height="24" viewBox="0 0 24 24"><rect width="24" height="24" fill="none"/><path d="M17.26,0a3.218,3.218,0,0,0-3.217,3.2V5.088h-3.3a.467.467,0,0,0-.072,0A.751.751,0,0,0,10,5.774L8.491,23.187a.745.745,0,0,0,.2.57A.753.753,0,0,0,9.241,24H27.735a.75.75,0,0,0,.751-.813L26.979,5.774a.752.752,0,0,0-.75-.686h-3.3V3.2A3.214,3.214,0,0,0,19.721,0Zm0,1.5h2.462a1.682,1.682,0,0,1,1.707,1.7V5.088H15.549V3.2A1.686,1.686,0,0,1,17.26,1.5ZM11.435,6.589h2.607V8.813h0a.753.753,0,0,0,1.506,0V6.589h5.879V8.814a.753.753,0,0,0,1.506,0V6.59H25.54L26.912,22.5H10.064Z" transform="translate(-8.488)"/><circle cx="3" cy="3" r="3" transform="translate(18)" fill="#ff7b54"/></svg>