<svg xmlns="http://www.w3.org/2000/svg" width="24" height="24" viewBox="0 0 24 24"><g transform="translate(-199 -187)"><rect width="24" height="24" transform="translate(199 187)" fill="none"/><path d="M19.667,336a.337.337,0,0,0-.333.34v2.717A2.358,2.358,0,0,1,17,341.433H3a2.358,2.358,0,0,1-2.333-2.377v-2.717A.337.337,0,0,0,.333,336a.337.337,0,0,0-.333.34v2.717a3.032,3.032,0,0,0,3,3.057H17a3.032,3.032,0,0,0,3-3.057v-2.717A.337.337,0,0,0,19.667,336Z" transform="translate(201.5 -134.112)" stroke="#000" stroke-width="1"/><path d="M142.042,3.624h0l3.12-2.673V11.722a.329.329,0,0,0,.65,0V.951l3.12,2.673a.365.365,0,0,0,.46,0,.251.251,0,0,0,0-.394L145.717.082a.364.364,0,0,0-.459,0L141.583,3.23a.251.251,0,0,0,0,.394A.365.365,0,0,0,142.042,3.624Z" transform="translate(356.987 202.001) rotate(180)" stroke="#000" stroke-width="1"/></g></svg>