<svg xmlns="http://www.w3.org/2000/svg" width="32" height="32" viewBox="0 0 32 32"><path d="M23.479,14.285l5.4.78a1.871,1.871,0,0,1,1.039,3.189l-3.9,3.82a1.873,1.873,0,0,0-.535,1.656l.929,5.386A1.868,1.868,0,0,1,23.7,31.092l-4.835-2.538a1.865,1.865,0,0,0-1.739,0L12.3,31.1a1.869,1.869,0,0,1-2.713-1.968l.916-5.389a1.873,1.873,0,0,0-.54-1.655l-3.912-3.81a1.871,1.871,0,0,1,1.031-3.191l5.4-.792a1.869,1.869,0,0,0,1.405-1.025L16.3,8.369a1.867,1.867,0,0,1,3.35,0l2.422,4.9a1.867,1.867,0,0,0,1.406,1.022Z" transform="translate(-1.485 -3.325)" fill="none" stroke="#151515" stroke-width="1"/><rect width="32" height="32" fill="none"/></svg>