<svg xmlns="http://www.w3.org/2000/svg" width="24" height="24" viewBox="0 0 24 24"><g transform="translate(1 -22)"><rect width="24" height="24" transform="translate(-1 22)" fill="none"/><path d="M19.433,26.222H16.5V24.37a.367.367,0,1,0-.733,0v1.852H6.233V24.37a.367.367,0,1,0-.733,0v1.852H2.567A2.583,2.583,0,0,0,0,28.815V41.407A2.583,2.583,0,0,0,2.567,44H19.433A2.583,2.583,0,0,0,22,41.407V28.815A2.583,2.583,0,0,0,19.433,26.222Zm1.833,15.185a1.845,1.845,0,0,1-1.833,1.852H2.567A1.845,1.845,0,0,1,.733,41.407V32.148H21.267Zm0-10H.733V28.815a1.845,1.845,0,0,1,1.833-1.852H5.5v1.852a.367.367,0,1,0,.733,0V26.963h9.533v1.852a.367.367,0,1,0,.733,0V26.963h2.933a1.845,1.845,0,0,1,1.833,1.852Z" stroke="#000" stroke-width="0.8"/></g></svg>