<svg xmlns="http://www.w3.org/2000/svg" width="24" height="24" viewBox="0 0 24 24"><g transform="translate(-27.024 7)"><rect width="24" height="24" transform="translate(27.024 -7)" fill="none"/><path d="M53.681,9.775A8,8,0,0,0,50.56,7.768a4.454,4.454,0,0,0,.762-6.076A4.05,4.05,0,0,0,45.489.9a4.454,4.454,0,0,0-.762,6.076,4.251,4.251,0,0,0,.764.8,8.256,8.256,0,0,0-5.466,7.9v2.666A1.636,1.636,0,0,0,41.624,20h12.8a1.636,1.636,0,0,0,1.6-1.666V15.667A8.469,8.469,0,0,0,53.681,9.775ZM44.5,4.335a3.523,3.523,0,1,1,7.04,0,3.688,3.688,0,0,1-1.9,3.254,3.3,3.3,0,0,1-.373.173l-.055.02q-.16.059-.323.1l-.084.021q-.157.037-.317.059l-.075.011a3.447,3.447,0,0,1-.788,0l-.074-.011q-.16-.022-.32-.059l-.083-.02a3.288,3.288,0,0,1-.324-.1l-.055-.019a3.377,3.377,0,0,1-.374-.174A3.673,3.673,0,0,1,44.5,4.335Zm10.88,14a.981.981,0,0,1-.96,1h-12.8a.981.981,0,0,1-.96-1V15.667a7.59,7.59,0,0,1,5.195-7.326.92.92,0,0,1,.28-.043.974.974,0,0,1,.368.073l.026.009c.044.018.089.031.132.047.1.033.192.067.288.093.062.017.125.032.188.046.084.019.168.033.252.047.064.01.128.021.195.028.113.012.226.018.34.021.032,0,.064.006.1.006s.064-.005.1-.006c.113,0,.224-.009.337-.021.066-.007.131-.018.2-.028.084-.013.167-.028.25-.047.064-.014.126-.029.188-.046.1-.027.2-.06.293-.095.042-.015.084-.028.125-.044l.03-.011a.947.947,0,0,1,.644-.031,7.636,7.636,0,0,1,5.2,7.327Z" transform="translate(-8.5 -5.5)" stroke="#000" stroke-width="1"/></g></svg>