<svg xmlns="http://www.w3.org/2000/svg" width="25" height="24" viewBox="0 0 25 24"><g transform="translate(0.5 3)"><rect width="24" height="24" transform="translate(0 -3)" fill="none"/><path d="M16.393,64.1H7.6a7.775,7.775,0,0,0,0,15.545h3.9l4.714,2.414a.392.392,0,0,0,.179.041.4.4,0,0,0,.4-.409V79.639a7.779,7.779,0,0,0-.4-15.535Zm0,14.727a.4.4,0,0,0-.4.409v1.793l-4.219-2.161a.392.392,0,0,0-.179-.041h-4a6.956,6.956,0,0,1,0-13.909h8.8a6.956,6.956,0,0,1,0,13.909Z" transform="translate(0 -64.104)" stroke="#000" stroke-width="1"/><path d="M146.1,264.1H136.4a.4.4,0,1,0,0,.808H146.1a.4.4,0,1,0,0-.808Z" transform="translate(-129.255 -253.871)" stroke="#000" stroke-width="1"/><path d="M146.1,168.1H136.4a.4.4,0,0,0,0,.808H146.1a.4.4,0,0,0,0-.808Z" transform="translate(-129.255 -162.783)" stroke="#000" stroke-width="1"/></g></svg>