<svg xmlns="http://www.w3.org/2000/svg" width="24" height="24" viewBox="0 0 24 24"><g transform="translate(1.135 2)"><rect width="24" height="24" transform="translate(-1.135 -2)" fill="none"/><path d="M18.814,8.146A7.074,7.074,0,0,0,16.175,6.5,3.654,3.654,0,1,0,11.6.8,4.323,4.323,0,0,0,6.558,7.81,8.254,8.254,0,0,0,.865,15.682v2.657A1.666,1.666,0,0,0,2.532,20H15.865a1.666,1.666,0,0,0,1.667-1.661v-1.6h1.89a1.444,1.444,0,0,0,1.443-1.441V13.081A6.935,6.935,0,0,0,18.814,8.146ZM13.865.679a2.987,2.987,0,0,1,1.384,5.643c-.09.046-.183.09-.279.128l-.01,0-.033.011c-.053.02-.11.038-.169.056a2.775,2.775,0,0,1-.56.117c-.049.006-.1.009-.144.012-.129.006-.253.006-.377,0-.049,0-.1-.006-.15-.012a2.78,2.78,0,0,1-.556-.116h0c.009-.015.015-.033.023-.048a4.275,4.275,0,0,0,.211-.43c0-.01.009-.019.013-.029a4.223,4.223,0,0,0,.157-.465c.009-.031.018-.061.025-.092a4.247,4.247,0,0,0,.093-.472c0-.03.007-.06.01-.09a4.328,4.328,0,0,0,.033-.509A4.4,4.4,0,0,0,13.5,3.91c-.006-.052-.017-.1-.024-.153-.015-.106-.032-.211-.055-.314-.013-.06-.031-.118-.047-.177-.025-.093-.051-.185-.082-.276-.021-.06-.044-.119-.067-.179-.033-.087-.07-.172-.109-.256-.027-.058-.057-.116-.087-.173-.043-.082-.09-.163-.138-.242-.033-.054-.067-.108-.1-.161-.054-.079-.111-.155-.17-.232-.038-.049-.075-.1-.115-.145-.067-.078-.137-.151-.209-.225-.04-.041-.077-.083-.119-.122-.012-.011-.022-.024-.033-.033A2.99,2.99,0,0,1,13.865.679ZM5.532,4.389a3.667,3.667,0,0,1,7.333,0q0,.141-.011.282c-.006.078-.016.156-.027.232,0,.014,0,.028,0,.042a3.651,3.651,0,0,1-.541,1.415c-.028.044-.056.088-.086.131l0,0-.014.018a3.66,3.66,0,0,1-1.3,1.119,3.507,3.507,0,0,1-1.023.349c-.071.015-.139.024-.218.033-.062.008-.127.014-.181.02H9.421c-.072,0-.147.006-.222.006H9.162c-.061,0-.123,0-.2-.006s-.138-.012-.21-.022S8.609,8,8.53,7.981a3.5,3.5,0,0,1-1.02-.35A3.637,3.637,0,0,1,5.532,4.389Zm11.333,13.95a1,1,0,0,1-1,1H2.532a1,1,0,0,1-1-1V15.682a7.6,7.6,0,0,1,5.411-7.3.991.991,0,0,1,.289-.043,1.049,1.049,0,0,1,.387.075,4.4,4.4,0,0,0,.782.222c.089.018.178.03.264.041s.157.018.241.025h.04c.072,0,.144.007.216.007H9.2c.085,0,.17,0,.263-.007l.049,0c.075-.007.151-.014.218-.023.093-.011.179-.023.26-.04a4.427,4.427,0,0,0,.793-.224,1.02,1.02,0,0,1,.669-.031,7.642,7.642,0,0,1,5.414,7.3v2.657ZM20.2,15.293a.778.778,0,0,1-.777.777h-1.89v-.389a8.247,8.247,0,0,0-2.441-5.871c-.118-.117-.239-.23-.363-.339-.038-.033-.078-.066-.117-.1-.087-.074-.175-.149-.267-.219-.048-.038-.1-.072-.146-.108-.084-.063-.167-.126-.254-.186-.053-.037-.108-.071-.162-.106-.084-.055-.167-.11-.253-.162-.058-.035-.117-.068-.176-.1-.084-.048-.167-.1-.253-.141-.062-.033-.126-.064-.189-.1-.084-.042-.167-.083-.253-.122-.067-.031-.133-.059-.2-.087-.083-.036-.167-.07-.251-.1s-.142-.053-.213-.078c-.049-.018-.1-.037-.147-.054.033-.025.062-.055.094-.082.067-.054.131-.111.194-.169s.122-.115.18-.175.118-.127.175-.192c.029-.033.061-.064.089-.1.062.024.128.044.192.064a3.483,3.483,0,0,0,.682.143c.064.007.124.011.19.015s.148.007.224.007.148,0,.226-.007.124-.008.183-.015a3.474,3.474,0,0,0,.684-.143c.067-.021.133-.042.2-.066l.031-.011.019-.007a.8.8,0,0,1,.522-.024,6.391,6.391,0,0,1,2.615,1.568A6.275,6.275,0,0,1,20.2,13.081v2.212Z" stroke="#000" stroke-width="1"/></g></svg>