<svg xmlns="http://www.w3.org/2000/svg" width="32" height="32.5" viewBox="0 0 32 32.5"><g transform="translate(-251 -68.75)"><rect width="32" height="32" transform="translate(251 69)" fill="none"/><path d="M31.306,45.86a4.52,4.52,0,0,0,4.5-4.539v-.886H45.921v-.443a14.73,14.73,0,0,0-4.1-10.182,14.456,14.456,0,0,0-9.959-4.438V13.86h-.877V25.372a14.45,14.45,0,0,0-9.962,4.443,14.728,14.728,0,0,0-4.1,10.191v.443H26.81v.886a4.523,4.523,0,0,0,4.5,4.525Zm3.622-4.539a3.619,3.619,0,1,1-7.238,0v-.886h7.238ZM31.421,26.266a13.571,13.571,0,0,1,9.464,3.874,13.835,13.835,0,0,1,4.151,9.423H17.807a13.84,13.84,0,0,1,4.144-9.438,13.573,13.573,0,0,1,9.471-3.881Z" transform="translate(236.079 55.14)" stroke="#151515" stroke-width="0.5"/></g></svg>