<svg xmlns="http://www.w3.org/2000/svg" width="24" height="24" viewBox="0 0 24 24"><g transform="translate(-8.256 1.999)"><rect width="24" height="24" transform="translate(8.256 -1.999)" fill="none"/><path d="M30.042,8.782,20.743.19a.72.72,0,0,0-.974,0l-9.3,8.592a.657.657,0,0,0-.214.483.687.687,0,0,0,.7.671h1.236V19.33a.687.687,0,0,0,.7.671H17.8a.687.687,0,0,0,.7-.671V13.962h3.506V19.33a.687.687,0,0,0,.7.671h4.908a.687.687,0,0,0,.7-.671V9.936h1.236a.717.717,0,0,0,.5-.2A.651.651,0,0,0,30.042,8.782Zm-1.723.482a.687.687,0,0,0-.7.671V19.33H22.71V13.962a.687.687,0,0,0-.7-.671H18.5a.687.687,0,0,0-.7.671V19.33H12.894V9.936a.687.687,0,0,0-.7-.671H10.957l9.3-8.592,9.3,8.592H28.319Z" stroke="#000" stroke-width="0.8"/></g></svg>