<svg xmlns="http://www.w3.org/2000/svg" width="24" height="24" viewBox="0 0 24 24"><g transform="translate(-61 1)"><rect width="24" height="24" transform="translate(61 -1)" fill="none"/><path d="M79.942,0H66.058A1.962,1.962,0,0,0,64,1.844V20.156A1.962,1.962,0,0,0,66.058,22H79.942A1.962,1.962,0,0,0,82,20.156V1.844A1.962,1.962,0,0,0,79.942,0Zm1.24,20.156a1.182,1.182,0,0,1-1.24,1.111H66.058a1.182,1.182,0,0,1-1.24-1.111V1.844A1.182,1.182,0,0,1,66.058.733H79.942a1.182,1.182,0,0,1,1.24,1.111Z" stroke="#000" stroke-width="0.8"/><path d="M146.1,232h-9.7a.4.4,0,0,0,0,.808h9.7a.4.4,0,0,0,0-.808Z" transform="translate(-68.253 -221.404)" stroke="#000" stroke-width="0.8"/><path d="M146.1,328h-9.7a.4.4,0,0,0,0,.808h9.7a.4.4,0,0,0,0-.808Z" transform="translate(-68.253 -313.02)" stroke="#000" stroke-width="0.8"/><path d="M146.1,136h-9.7a.4.4,0,0,0,0,.808h9.7a.4.4,0,0,0,0-.808Z" transform="translate(-68.253 -129.789)" stroke="#000" stroke-width="0.8"/></g></svg>