<svg xmlns="http://www.w3.org/2000/svg" width="24.513" height="24" viewBox="0 0 24.513 24"><g transform="translate(0.25 -84.857)"><rect width="24" height="24" transform="translate(0 84.857)" fill="none"/><path d="M14.579,102.085a1.535,1.535,0,0,0-1.58.076L5.49,107.168H1.45A1.452,1.452,0,0,0,0,108.618V112.9a1.452,1.452,0,0,0,1.45,1.45H5.49L13,119.357a1.539,1.539,0,0,0,2.391-1.281V103.442A1.539,1.539,0,0,0,14.579,102.085ZM5.13,113.325H1.45a.425.425,0,0,1-.424-.424v-4.283a.425.425,0,0,1,.424-.424H5.13Zm9.235,4.752a.513.513,0,0,1-.8.427l-7.411-4.941v-5.608l7.411-4.941a.513.513,0,0,1,.8.427Z" transform="translate(0 -14.044)" stroke="#000" stroke-width="0.5"/><path d="M313.49,158.844a5.639,5.639,0,0,0-3.955-3.955v0a.513.513,0,1,0-.3.982l.027.007a4.614,4.614,0,0,1,0,8.9.513.513,0,0,0,.135,1.008.5.5,0,0,0,.136-.023A5.639,5.639,0,0,0,313.49,158.844Z" transform="translate(-289.69 -64.016)" stroke="#000" stroke-width="0.5"/><path d="M266.669,202.949a2.562,2.562,0,0,0-1.8-1.8.513.513,0,1,0-.3.982l.027.007a1.536,1.536,0,0,1,0,2.965.513.513,0,0,0,.135,1.008.494.494,0,0,0,.136-.018A2.562,2.562,0,0,0,266.669,202.949Z" transform="translate(-247.744 -107.29)" stroke="#000" stroke-width="0.5"/></g></svg>