<svg xmlns="http://www.w3.org/2000/svg" width="24.8" height="24" viewBox="0 0 24.8 24"><g transform="translate(335.4 -67.455)"><rect width="24" height="24" transform="translate(-335 67.455)" fill="none"/><path d="M23.6,64H.4a.4.4,0,0,0-.4.409V81.591A.4.4,0,0,0,.4,82H23.6a.4.4,0,0,0,.4-.409V64.409A.4.4,0,0,0,23.6,64Zm-.4,17.182H.8V76.933l4.8-4.909,3.317,3.393a.394.394,0,0,0,.566,0L15.6,69.16l7.6,7.773Zm0-5.406-7.317-7.483a.394.394,0,0,0-.566,0L9.2,74.549,5.883,71.156a.394.394,0,0,0-.566,0L.8,75.776V64.818H23.2Z" transform="translate(-335 6.455)" stroke="#000" stroke-width="0.8"/></g></svg>