<svg xmlns="http://www.w3.org/2000/svg" width="24" height="24" viewBox="0 0 24 24"><g transform="translate(1 -45)"><rect width="24" height="24" transform="translate(-1 45)" fill="none"/><path d="M140.9,136a4.9,4.9,0,1,0,4.9,4.9A4.9,4.9,0,0,0,140.9,136Zm0,9.052a4.149,4.149,0,1,1,4.149-4.149A4.149,4.149,0,0,1,140.9,145.052Z" transform="translate(-129.903 -82.903)" stroke="#000" stroke-width="0.7"/><path d="M20.167,51H17.6a1.113,1.113,0,0,1-1.1-1.125A1.857,1.857,0,0,0,14.667,48H7.333A1.857,1.857,0,0,0,5.5,49.875,1.113,1.113,0,0,1,4.4,51H1.833A1.857,1.857,0,0,0,0,52.875v11.25A1.857,1.857,0,0,0,1.833,66H20.167A1.857,1.857,0,0,0,22,64.125V52.875A1.857,1.857,0,0,0,20.167,51Zm1.1,13.125a1.113,1.113,0,0,1-1.1,1.125H1.833a1.113,1.113,0,0,1-1.1-1.125V52.875a1.113,1.113,0,0,1,1.1-1.125H4.4a1.857,1.857,0,0,0,1.833-1.875,1.113,1.113,0,0,1,1.1-1.125h7.333a1.113,1.113,0,0,1,1.1,1.125A1.857,1.857,0,0,0,17.6,51.75h2.567a1.113,1.113,0,0,1,1.1,1.125Z" stroke="#000" stroke-width="0.7"/></g></svg>