<svg xmlns="http://www.w3.org/2000/svg" width="24" height="24" viewBox="0 0 24 24"><g transform="translate(1.672 -24.452)"><path d="M19.682,30.375a2.952,2.952,0,0,0-2.939-2.719H5.558A2.952,2.952,0,0,0,2.61,30.6V42.246a2.952,2.952,0,0,0,2.948,2.948H18.885a2.952,2.952,0,0,0,2.948-2.948V33.213a2.953,2.953,0,0,0-2.151-2.838ZM5.558,29.033H16.743a1.573,1.573,0,0,1,1.534,1.231H5.558a2.93,2.93,0,0,0-1.571.455V30.6A1.573,1.573,0,0,1,5.558,29.033ZM18.885,43.817H5.558a1.573,1.573,0,0,1-1.571-1.571V33.213a1.573,1.573,0,0,1,1.571-1.571H18.885a1.573,1.573,0,0,1,1.571,1.571v1.4H16.743a3.156,3.156,0,0,0,0,6.312h3.713v1.318A1.573,1.573,0,0,1,18.885,43.817Zm1.571-4.266H16.743a1.779,1.779,0,0,1,0-3.557h3.713Z" transform="translate(-2 0)"/><circle cx="0.717" cy="0.717" r="0.717" transform="translate(15.603 37.108)"/></g><rect width="24" height="24" fill="none"/></svg>