<svg xmlns="http://www.w3.org/2000/svg" width="32" height="32" viewBox="0 0 32 32"><g transform="translate(-251 -69)"><rect width="32" height="32" transform="translate(251 69)" fill="none"/><g transform="translate(251 70.105)"><path d="M28.064,30H24.007a.535.535,0,0,1-.533-.536v-1.45H8.526v1.45A.535.535,0,0,1,7.993,30H3.936a.535.535,0,0,1-.533-.536V27.872a2.352,2.352,0,0,1-1.53-2.2V19.851a4.06,4.06,0,0,1,3.141-7.374v-6.4A6.068,6.068,0,0,1,11.059,0h9.882a6.068,6.068,0,0,1,6.046,6.077v6.4a4.064,4.064,0,0,1,3.141,7.374v5.821a2.351,2.351,0,0,1-1.53,2.2v1.592A.535.535,0,0,1,28.064,30Zm-3.523-1.986v.914h2.99v-.914Zm-20.072,0v.914h2.99v-.914ZM27.956,13.43a2.988,2.988,0,0,0-2.977,2.992v10.52H27.8a1.268,1.268,0,0,0,1.264-1.27V19.564a.384.384,0,0,1,0-.042.539.539,0,0,1,.283-.453,3,3,0,0,0-1.389-5.639ZM8.088,24.991v1.951H23.912V24.991ZM4.044,13.43a3,3,0,0,0-1.389,5.639.538.538,0,0,1,.284.452.421.421,0,0,1,0,.051v6.1A1.268,1.268,0,0,0,4.2,26.942H7.021V16.422A2.988,2.988,0,0,0,4.044,13.43Zm4.044,5.683v4.806H23.912V19.113Zm2.971-18.04a5,5,0,0,0-4.979,5v6.836a4.07,4.07,0,0,1,2.008,3.51V18.04H23.912V16.422a4.071,4.071,0,0,1,2.008-3.51V6.077a5,5,0,0,0-4.979-5Z" transform="translate(0 -0.105)"/><path d="M1,2A1,1,0,0,0,1.7.292a1,1,0,0,0-1.413,0A1,1,0,0,0,1,2Z" transform="translate(9.727 4.87)"/><path d="M1,2A1,1,0,0,0,1.7.292a1,1,0,0,0-1.413,0A1,1,0,0,0,1,2Z" transform="translate(15.005 4.87)"/><path d="M1,2A1,1,0,0,0,1.7.292a1,1,0,0,0-1.413,0A1,1,0,0,0,1,2Z" transform="translate(20.283 4.87)"/><path d="M1,2A1,1,0,0,0,1.7.292a1,1,0,0,0-1.413,0A1,1,0,0,0,1,2Z" transform="translate(9.727 10.931)"/><path d="M1,2A1,1,0,0,0,1.7.292a1,1,0,0,0-1.413,0A1,1,0,0,0,1,2Z" transform="translate(15.005 10.931)"/><path d="M1,2A1,1,0,0,0,1.7.292a1,1,0,0,0-1.413,0A1,1,0,0,0,1,2Z" transform="translate(20.283 10.931)"/></g></g></svg>